<svg xmlns="http://www.w3.org/2000/svg" width="850" height="446" viewBox="0 0 850 446">
  <g id="Group_29428" data-name="Group 29428" transform="translate(-535 -1177)">
    <path id="Path_33740" data-name="Path 33740" d="M376.513,242.717v-12.6H368.4a23.188,23.188,0,0,0-2.211-5.319l5.744-5.744-8.911-8.908-5.751,5.747a23.6,23.6,0,0,0-5.309-2.2v-8.133h-12.6V213.7a23.59,23.59,0,0,0-5.312,2.2l-5.747-5.747-8.912,8.908,5.741,5.744a23.348,23.348,0,0,0-2.211,5.319H314.81v12.6h8.1a23.393,23.393,0,0,0,2.206,5.339l-5.721,5.721,8.912,8.911,5.711-5.714a23.468,23.468,0,0,0,5.348,2.219v8.078h12.6v-8.078a23.428,23.428,0,0,0,5.346-2.219l5.714,5.714,8.911-8.911-5.72-5.721a23.5,23.5,0,0,0,2.206-5.339Zm-30.85,7.016a13.288,13.288,0,1,1,13.286-13.288A13.29,13.29,0,0,1,345.663,249.733Z" transform="translate(711.383 1161.869)" fill="#fff"/>
    <path id="Path_33741" data-name="Path 33741" d="M101.356,350.935v-12.6H93.243a23.212,23.212,0,0,0-2.211-5.319l5.744-5.744-8.911-8.908-5.751,5.748a23.488,23.488,0,0,0-5.309-2.2v-8.134h-12.6v8.134a23.461,23.461,0,0,0-5.312,2.2l-5.748-5.748-8.911,8.908,5.741,5.744a23.317,23.317,0,0,0-2.211,5.319H39.652v12.6h8.1a23.479,23.479,0,0,0,2.206,5.339l-5.72,5.721,8.911,8.911,5.712-5.713a23.438,23.438,0,0,0,5.348,2.216v8.079h12.6v-8.079a23.42,23.42,0,0,0,5.346-2.216l5.714,5.713,8.911-8.911-5.72-5.721a23.532,23.532,0,0,0,2.206-5.339Zm-30.85,7.016a13.287,13.287,0,1,1,13.286-13.288A13.291,13.291,0,0,1,70.506,357.95Z" transform="translate(552.432 1224.598)" fill="#17a9fe"/>
    <path id="Path_33742" data-name="Path 33742" d="M101.135,148.831v-12.6H93.022a23.2,23.2,0,0,0-2.211-5.317l5.744-5.744-8.911-8.909-5.751,5.748a23.542,23.542,0,0,0-5.309-2.2v-8.133h-12.6v8.133a23.515,23.515,0,0,0-5.312,2.2l-5.748-5.748-8.911,8.909,5.741,5.744a23.309,23.309,0,0,0-2.211,5.317H39.431v12.6h8.1a23.448,23.448,0,0,0,2.206,5.339l-5.72,5.72,8.911,8.912,5.712-5.714a23.442,23.442,0,0,0,5.348,2.218v8.078h12.6V165.3a23.424,23.424,0,0,0,5.346-2.218l5.714,5.714,8.911-8.912-5.72-5.72a23.609,23.609,0,0,0,2.206-5.339Zm-30.852,7.016a13.288,13.288,0,1,1,13.287-13.288A13.29,13.29,0,0,1,70.284,155.846Z" transform="translate(662.393 1145.379)" fill="#7595ec"/>
    <path id="Path_33743" data-name="Path 33743" d="M478.417,339.8v-12.6H470.3a23.255,23.255,0,0,0-2.211-5.317l5.744-5.744-8.912-8.909-5.75,5.748a23.511,23.511,0,0,0-5.309-2.2v-8.133h-12.6v8.133a23.475,23.475,0,0,0-5.31,2.2l-5.748-5.748-8.912,8.909,5.741,5.744a23.414,23.414,0,0,0-2.211,5.317h-8.112v12.6h8.1a23.4,23.4,0,0,0,2.206,5.339l-5.721,5.72,8.912,8.912,5.711-5.714a23.487,23.487,0,0,0,5.348,2.218v8.078h12.6v-8.078a23.447,23.447,0,0,0,5.346-2.218l5.713,5.714,8.912-8.912-5.721-5.72a23.5,23.5,0,0,0,2.206-5.339Zm-30.85,7.016a13.288,13.288,0,1,1,13.286-13.289A13.291,13.291,0,0,1,447.567,346.811Z" transform="translate(729.512 1178.896)" fill="#fff"/>
    <path id="Path_33744" data-name="Path 33744" d="M240.23,82.188v-12.6h-8.113a23.193,23.193,0,0,0-2.211-5.319l5.744-5.744-8.911-8.908-5.751,5.748a23.544,23.544,0,0,0-5.309-2.2V45.035h-12.6v8.133a23.518,23.518,0,0,0-5.312,2.2l-5.748-5.748-8.911,8.908,5.741,5.744a23.3,23.3,0,0,0-2.211,5.319h-8.113v12.6h8.1a23.479,23.479,0,0,0,2.206,5.339l-5.72,5.721,8.911,8.911,5.712-5.713a23.44,23.44,0,0,0,5.348,2.216v8.079h12.6V98.662a23.422,23.422,0,0,0,5.346-2.216l5.714,5.713,8.911-8.911-5.72-5.721a23.534,23.534,0,0,0,2.206-5.339ZM209.38,89.2a13.287,13.287,0,1,1,13.286-13.288A13.291,13.291,0,0,1,209.38,89.2Z" transform="translate(687.138 1133.674)" fill="#17a9fe"/>
    <rect id="Rectangle_10686" data-name="Rectangle 10686" width="118.398" height="157.41" transform="translate(702.325 1287.448)" fill="#7595ec"/>
    <rect id="Rectangle_10687" data-name="Rectangle 10687" width="118.398" height="13.934" transform="translate(702.325 1287.448)" fill="#ff6d66"/>
    <g id="Group_29424" data-name="Group 29424">
      <rect id="Rectangle_10689" data-name="Rectangle 10689" width="18.287" height="3.203" transform="translate(710.435 1318.343)" fill="#073570"/>
      <rect id="Rectangle_10694" data-name="Rectangle 10694" width="31.392" height="3.202" transform="translate(710.435 1325.476)" fill="#073570"/>
      <rect id="Rectangle_10695" data-name="Rectangle 10695" width="18.287" height="3.202" transform="translate(710.435 1391.271)" fill="#073570"/>
      <rect id="Rectangle_10702" data-name="Rectangle 10702" width="18.288" height="3.203" transform="translate(720.077 1337.558)" fill="#073570"/>
      <rect id="Rectangle_10707" data-name="Rectangle 10707" width="18.288" height="3.202" transform="translate(720.077 1351.629)" fill="#073570"/>
      <rect id="Rectangle_10711" data-name="Rectangle 10711" width="31.395" height="3.203" transform="translate(720.077 1344.69)" fill="#073570"/>
      <rect id="Rectangle_10712" data-name="Rectangle 10712" width="18.288" height="3.202" transform="translate(720.077 1407.576)" fill="#073570"/>
      <rect id="Rectangle_10717" data-name="Rectangle 10717" width="18.288" height="3.204" transform="translate(720.077 1421.649)" fill="#073570"/>
      <rect id="Rectangle_10720" data-name="Rectangle 10720" width="18.288" height="3.204" transform="translate(720.077 1414.709)" fill="#073570"/>
      <rect id="Rectangle_10723" data-name="Rectangle 10723" width="18.288" height="3.203" transform="translate(720.077 1372.64)" fill="#073570"/>
      <rect id="Rectangle_10726" data-name="Rectangle 10726" width="31.395" height="3.202" transform="translate(720.077 1380.695)" fill="#073570"/>
    </g>
    <g id="Group_29425" data-name="Group 29425">
      <rect id="Rectangle_10690" data-name="Rectangle 10690" width="28.684" height="3.203" transform="translate(733.195 1318.343)" fill="#0fd7ad"/>
      <rect id="Rectangle_10691" data-name="Rectangle 10691" width="27.155" height="3.202" transform="translate(745.202 1325.476)" fill="#0fd7ad"/>
      <rect id="Rectangle_10693" data-name="Rectangle 10693" width="18.286" height="3.203" transform="translate(784.148 1318.343)" fill="#0fd7ad"/>
      <rect id="Rectangle_10696" data-name="Rectangle 10696" width="28.684" height="3.202" transform="translate(733.195 1391.271)" fill="#0fd7ad"/>
      <rect id="Rectangle_10697" data-name="Rectangle 10697" width="11.615" height="3.202" transform="translate(745.202 1398.404)" fill="#0fd7ad"/>
      <rect id="Rectangle_10698" data-name="Rectangle 10698" width="13.324" height="3.202" transform="translate(766.49 1391.271)" fill="#0fd7ad"/>
      <rect id="Rectangle_10701" data-name="Rectangle 10701" width="28.684" height="3.202" transform="translate(733.195 1430.482)" fill="#0fd7ad"/>
      <rect id="Rectangle_10704" data-name="Rectangle 10704" width="15.345" height="3.203" transform="translate(754.847 1344.69)" fill="#0fd7ad"/>
      <rect id="Rectangle_10706" data-name="Rectangle 10706" width="25.997" height="3.203" transform="translate(763.459 1337.558)" fill="#0fd7ad"/>
      <rect id="Rectangle_10708" data-name="Rectangle 10708" width="17.286" height="3.202" transform="translate(742.838 1351.629)" fill="#0fd7ad"/>
      <rect id="Rectangle_10709" data-name="Rectangle 10709" width="25.997" height="3.202" transform="translate(763.459 1351.629)" fill="#0fd7ad"/>
      <rect id="Rectangle_10710" data-name="Rectangle 10710" width="18.287" height="3.203" transform="translate(793.793 1337.558)" fill="#0fd7ad"/>
      <rect id="Rectangle_10713" data-name="Rectangle 10713" width="20.622" height="3.202" transform="translate(742.838 1407.576)" fill="#0fd7ad"/>
      <rect id="Rectangle_10714" data-name="Rectangle 10714" width="27.353" height="3.204" transform="translate(742.838 1414.709)" fill="#0fd7ad"/>
      <rect id="Rectangle_10715" data-name="Rectangle 10715" width="11.563" height="3.204" transform="translate(774.212 1414.709)" fill="#0fd7ad"/>
      <rect id="Rectangle_10719" data-name="Rectangle 10719" width="25.997" height="3.204" transform="translate(763.459 1421.649)" fill="#0fd7ad"/>
      <rect id="Rectangle_10721" data-name="Rectangle 10721" width="15.345" height="3.202" transform="translate(754.847 1380.695)" fill="#0fd7ad"/>
      <rect id="Rectangle_10722" data-name="Rectangle 10722" width="25.347" height="3.202" transform="translate(774.212 1380.695)" fill="#0fd7ad"/>
      <rect id="Rectangle_10724" data-name="Rectangle 10724" width="17.286" height="3.203" transform="translate(742.838 1372.64)" fill="#0fd7ad"/>
      <rect id="Rectangle_10727" data-name="Rectangle 10727" width="15.344" height="3.203" transform="translate(766.422 1362.061)" fill="#0fd7ad"/>
    </g>
    <g id="Group_29423" data-name="Group 29423">
      <rect id="Rectangle_10688" data-name="Rectangle 10688" width="48.502" height="3.202" transform="translate(710.435 1311.211)" fill="#f9865f"/>
      <rect id="Rectangle_10692" data-name="Rectangle 10692" width="13.324" height="3.203" transform="translate(766.49 1318.343)" fill="#f9865f"/>
      <rect id="Rectangle_10699" data-name="Rectangle 10699" width="31.392" height="3.202" transform="translate(710.435 1398.404)" fill="#f9865f"/>
      <rect id="Rectangle_10700" data-name="Rectangle 10700" width="18.287" height="3.202" transform="translate(710.435 1430.482)" fill="#f9865f"/>
      <rect id="Rectangle_10703" data-name="Rectangle 10703" width="17.286" height="3.203" transform="translate(742.838 1337.558)" fill="#f9865f"/>
      <rect id="Rectangle_10705" data-name="Rectangle 10705" width="25.347" height="3.203" transform="translate(774.212 1344.69)" fill="#f9865f"/>
      <rect id="Rectangle_10716" data-name="Rectangle 10716" width="34.168" height="3.202" transform="translate(767.935 1407.576)" fill="#f9865f"/>
      <rect id="Rectangle_10718" data-name="Rectangle 10718" width="17.286" height="3.204" transform="translate(742.838 1421.649)" fill="#f9865f"/>
      <rect id="Rectangle_10725" data-name="Rectangle 10725" width="25.997" height="3.203" transform="translate(763.459 1372.64)" fill="#f9865f"/>
      <rect id="Rectangle_10728" data-name="Rectangle 10728" width="31.394" height="3.203" transform="translate(731.655 1362.061)" fill="#f9865f"/>
    </g>
    <g id="Group_29348" data-name="Group 29348" transform="translate(711.002 1292.261)">
      <g id="Group_29347" data-name="Group 29347">
        <path id="Path_33765" data-name="Path 33765" d="M77.737,143.9a2.261,2.261,0,1,1-2.261-2.261A2.263,2.263,0,0,1,77.737,143.9Z" transform="translate(-73.216 -141.635)" fill="#f9f9f9"/>
        <path id="Path_33766" data-name="Path 33766" d="M85.305,143.9a2.261,2.261,0,1,1-2.26-2.261A2.262,2.262,0,0,1,85.305,143.9Z" transform="translate(-71.871 -141.635)" fill="#f9f9f9"/>
        <path id="Path_33767" data-name="Path 33767" d="M92.872,143.9a2.26,2.26,0,1,1-2.258-2.261A2.261,2.261,0,0,1,92.872,143.9Z" transform="translate(-70.526 -141.635)" fill="#f9f9f9"/>
      </g>
    </g>
    <rect id="Rectangle_10729" data-name="Rectangle 10729" width="83.245" height="24.474" transform="translate(991.246 1603.366) rotate(180)" fill="#f9865f"/>
    <rect id="Rectangle_10730" data-name="Rectangle 10730" width="83.245" height="8.193" transform="translate(991.246 1603.366) rotate(180)" fill="#fad8b0"/>
    <path id="Path_33769" data-name="Path 33769" d="M216.554,406.086h84.729a17.815,17.815,0,0,1,17.992,17.634H198.566A17.813,17.813,0,0,1,216.554,406.086Z" transform="translate(690.704 1197.28)" fill="#f9865f"/>
    <rect id="Rectangle_10731" data-name="Rectangle 10731" width="278.793" height="179.813" rx="4" transform="translate(1089.242 1578.892) rotate(180)" fill="#fad8b0"/>
    <path id="Rectangle_10732" data-name="Rectangle 10732" d="M4.164,0H268.831A4.164,4.164,0,0,1,273,4.164V170.788a4.166,4.166,0,0,1-4.166,4.166H4.165A4.165,4.165,0,0,1,0,170.788V4.164A4.164,4.164,0,0,1,4.164,0Z" transform="translate(1086.344 1576.46) rotate(180)" fill="#f9865f"/>
    <path id="Rectangle_10733" data-name="Rectangle 10733" d="M3.634,0H245.922a3.636,3.636,0,0,1,3.636,3.636V142.49a3.636,3.636,0,0,1-3.636,3.636H3.634A3.634,3.634,0,0,1,0,142.492V3.634A3.634,3.634,0,0,1,3.634,0Z" transform="translate(1074.626 1562.045) rotate(180)" fill="#073570"/>
    <rect id="Rectangle_10740" data-name="Rectangle 10740" width="59.744" height="3.867" transform="translate(838.877 1446.866)" fill="#65a4cd"/>
    <g id="Group_29421" data-name="Group 29421">
      <rect id="Rectangle_10736" data-name="Rectangle 10736" width="54.59" height="3.871" transform="translate(882.193 1438.244)" fill="#7595ec"/>
      <rect id="Rectangle_10738" data-name="Rectangle 10738" width="25.358" height="3.871" transform="translate(945.558 1438.244)" fill="#7595ec"/>
      <rect id="Rectangle_10748" data-name="Rectangle 10748" width="29.203" height="3.869" transform="translate(923.398 1470.082)" fill="#7595ec"/>
      <rect id="Rectangle_10757" data-name="Rectangle 10757" width="39.246" height="3.869" transform="translate(900.546 1546.063)" fill="#7595ec"/>
    </g>
    <g id="Group_29420" data-name="Group 29420">
      <rect id="Rectangle_10739" data-name="Rectangle 10739" width="34.8" height="3.871" transform="translate(979.163 1438.244)" fill="#ff6d66"/>
      <rect id="Rectangle_10741" data-name="Rectangle 10741" width="34.802" height="3.869" transform="translate(838.877 1526.363)" fill="#ff6d66"/>
      <rect id="Rectangle_10744" data-name="Rectangle 10744" width="25.358" height="3.869" transform="translate(945.558 1526.363)" fill="#ff6d66"/>
      <rect id="Rectangle_10746" data-name="Rectangle 10746" width="34.804" height="3.869" transform="translate(857.229 1461.463)" fill="#ff6d66"/>
      <rect id="Rectangle_10749" data-name="Rectangle 10749" width="48.239" height="3.869" transform="translate(960.255 1470.082)" fill="#ff6d66"/>
      <rect id="Rectangle_10751" data-name="Rectangle 10751" width="34.804" height="3.869" transform="translate(857.229 1478.466)" fill="#ff6d66"/>
      <rect id="Rectangle_10753" data-name="Rectangle 10753" width="49.476" height="3.869" transform="translate(939.792 1478.466)" fill="#ff6d66"/>
      <rect id="Rectangle_10759" data-name="Rectangle 10759" width="29.203" height="3.869" transform="translate(923.398 1513.584)" fill="#ff6d66"/>
      <rect id="Rectangle_10762" data-name="Rectangle 10762" width="32.898" height="3.869" transform="translate(900.546 1503.852)" fill="#ff6d66"/>
    </g>
    <g id="Group_29419" data-name="Group 29419">
      <rect id="Rectangle_10735" data-name="Rectangle 10735" width="34.802" height="3.871" transform="translate(838.877 1438.244)" fill="#0fd7ad"/>
      <rect id="Rectangle_10737" data-name="Rectangle 10737" width="51.682" height="3.867" transform="translate(905.044 1446.866)" fill="#0fd7ad"/>
      <rect id="Rectangle_10742" data-name="Rectangle 10742" width="54.59" height="3.869" transform="translate(882.193 1526.363)" fill="#0fd7ad"/>
      <rect id="Rectangle_10752" data-name="Rectangle 10752" width="32.898" height="3.869" transform="translate(900.546 1478.466)" fill="#0fd7ad"/>
      <rect id="Rectangle_10754" data-name="Rectangle 10754" width="34.801" height="3.869" transform="translate(997.518 1461.463)" fill="#0fd7ad"/>
      <rect id="Rectangle_10755" data-name="Rectangle 10755" width="59.747" height="3.869" transform="translate(857.229 1470.082)" fill="#0fd7ad"/>
      <rect id="Rectangle_10756" data-name="Rectangle 10756" width="34.804" height="3.869" transform="translate(857.229 1546.063)" fill="#0fd7ad"/>
      <rect id="Rectangle_10760" data-name="Rectangle 10760" width="48.239" height="3.869" transform="translate(960.255 1513.584)" fill="#0fd7ad"/>
      <rect id="Rectangle_10761" data-name="Rectangle 10761" width="34.804" height="3.869" transform="translate(857.229 1503.852)" fill="#0fd7ad"/>
      <rect id="Rectangle_10765" data-name="Rectangle 10765" width="29.203" height="3.869" transform="translate(945.429 1491.069)" fill="#0fd7ad"/>
    </g>
    <g id="Group_29418" data-name="Group 29418">
      <rect id="Rectangle_10734" data-name="Rectangle 10734" width="92.305" height="3.868" transform="translate(838.877 1429.63)" fill="#fad8b0"/>
      <rect id="Rectangle_10743" data-name="Rectangle 10743" width="22.106" height="3.869" transform="translate(905.044 1534.98)" fill="#fad8b0"/>
      <rect id="Rectangle_10745" data-name="Rectangle 10745" width="59.744" height="3.869" transform="translate(838.877 1534.98)" fill="#fad8b0"/>
      <rect id="Rectangle_10747" data-name="Rectangle 10747" width="32.898" height="3.869" transform="translate(900.546 1461.463)" fill="#fad8b0"/>
      <rect id="Rectangle_10750" data-name="Rectangle 10750" width="49.476" height="3.869" transform="translate(939.792 1461.463)" fill="#fad8b0"/>
      <rect id="Rectangle_10758" data-name="Rectangle 10758" width="65.026" height="3.869" transform="translate(948.308 1546.063)" fill="#fad8b0"/>
      <rect id="Rectangle_10763" data-name="Rectangle 10763" width="49.476" height="3.869" transform="translate(939.792 1503.852)" fill="#fad8b0"/>
      <rect id="Rectangle_10764" data-name="Rectangle 10764" width="59.747" height="3.869" transform="translate(857.229 1513.584)" fill="#fad8b0"/>
      <rect id="Rectangle_10766" data-name="Rectangle 10766" width="59.746" height="3.869" transform="translate(879.263 1491.069)" fill="#fad8b0"/>
    </g>
    <path id="Path_33774" data-name="Path 33774" d="M513.476,97.532,422.64,45.869,258.667,96.915" transform="translate(783.423 1133.822)" fill="none" stroke="#2c2e33" stroke-miterlimit="10" stroke-width="2.493"/>
    <rect id="Rectangle_10784" data-name="Rectangle 10784" width="10.251" height="40.713" transform="translate(1296.9 1229.251)" fill="#91ba83"/>
    <path id="Path_33776" data-name="Path 33776" d="M228.209,126.146h36.336V89.811Z" transform="translate(778.01 1141.631)" fill="#91ba83"/>
    <g id="Group_29390" data-name="Group 29390" transform="translate(1191.748 1177)">
      <rect id="Rectangle_10785" data-name="Rectangle 10785" width="28.628" height="15.915" transform="translate(28.628 15.915) rotate(180)" fill="#91ba83"/>
    </g>
    <g id="Group_29414" data-name="Group 29414" transform="translate(0 1)">
      <g id="Group_29389" data-name="Group 29389" transform="translate(1006.22 1195.105)">
        <g id="Group_29369" data-name="Group 29369" transform="translate(218.009 36.335)">
          <g id="Group_29367" data-name="Group 29367">
            <g id="Rectangle_10767" data-name="Rectangle 10767" transform="translate(36.337 36.335) rotate(180)" fill="none" stroke="#383838" stroke-miterlimit="10" stroke-width="3">
              <rect width="36.337" height="36.335" stroke="none"/>
              <rect x="-1.5" y="-1.5" width="39.337" height="39.335" fill="none"/>
            </g>
            <line id="Line_909" data-name="Line 909" x1="36.337" y2="36.335" transform="translate(0)" fill="none" stroke="#383838" stroke-miterlimit="10" stroke-width="3"/>
            <line id="Line_910" data-name="Line 910" x2="36.337" y2="36.335" transform="translate(0)" fill="none" stroke="#383838" stroke-miterlimit="10" stroke-width="3"/>
          </g>
          <g id="Group_29368" data-name="Group 29368" transform="translate(36.337)">
            <g id="Rectangle_10768" data-name="Rectangle 10768" transform="translate(36.333 36.335) rotate(180)" fill="none" stroke="#383838" stroke-miterlimit="10" stroke-width="3">
              <rect width="36.333" height="36.335" stroke="none"/>
              <rect x="-1.5" y="-1.5" width="39.333" height="39.335" fill="none"/>
            </g>
            <line id="Line_911" data-name="Line 911" y1="36.335" x2="36.333" fill="none" stroke="#383838" stroke-miterlimit="10" stroke-width="3"/>
            <line id="Line_912" data-name="Line 912" x2="36.333" y2="36.335" fill="none" stroke="#383838" stroke-miterlimit="10" stroke-width="3"/>
          </g>
        </g>
        <g id="Group_29375" data-name="Group 29375" transform="translate(0 35.718)">
          <path id="Path_33775" data-name="Path 33775" d="M264.08,89.285l-35.87,36.952h36.334" transform="translate(-228.21 -89.285)" fill="none" stroke="#383838" stroke-miterlimit="10" stroke-width="3"/>
          <g id="Group_29374" data-name="Group 29374" transform="translate(36.334 0.617)">
            <g id="Group_29370" data-name="Group 29370" transform="translate(36.337)">
              <g id="Rectangle_10769" data-name="Rectangle 10769" transform="translate(36.333 36.335) rotate(180)" fill="none" stroke="#383838" stroke-miterlimit="10" stroke-width="3">
                <rect width="36.333" height="36.335" stroke="none"/>
                <rect x="-1.5" y="-1.5" width="39.333" height="39.335" fill="none"/>
              </g>
              <line id="Line_913" data-name="Line 913" x1="36.333" y2="36.335" transform="translate(0)" fill="none" stroke="#383838" stroke-miterlimit="10" stroke-width="3"/>
              <line id="Line_914" data-name="Line 914" x2="36.333" y2="36.335" transform="translate(0)" fill="none" stroke="#383838" stroke-miterlimit="10" stroke-width="3"/>
            </g>
            <g id="Group_29371" data-name="Group 29371">
              <g id="Rectangle_10770" data-name="Rectangle 10770" transform="translate(36.337 36.335) rotate(180)" fill="none" stroke="#383838" stroke-miterlimit="10" stroke-width="3">
                <rect width="36.337" height="36.335" stroke="none"/>
                <rect x="-1.5" y="-1.5" width="39.337" height="39.335" fill="none"/>
              </g>
              <line id="Line_915" data-name="Line 915" x1="36.337" y2="36.335" fill="none" stroke="#383838" stroke-miterlimit="10" stroke-width="3"/>
              <line id="Line_916" data-name="Line 916" x2="36.337" y2="36.335" fill="none" stroke="#383838" stroke-miterlimit="10" stroke-width="3"/>
            </g>
            <g id="Group_29372" data-name="Group 29372" transform="translate(72.67)">
              <g id="Rectangle_10771" data-name="Rectangle 10771" transform="translate(36.336 36.335) rotate(180)" fill="none" stroke="#383838" stroke-miterlimit="10" stroke-width="3">
                <rect width="36.336" height="36.335" stroke="none"/>
                <rect x="-1.5" y="-1.5" width="39.336" height="39.335" fill="none"/>
              </g>
              <line id="Line_917" data-name="Line 917" x1="36.336" y2="36.335" fill="none" stroke="#383838" stroke-miterlimit="10" stroke-width="3"/>
              <line id="Line_918" data-name="Line 918" x2="36.336" y2="36.335" fill="none" stroke="#383838" stroke-miterlimit="10" stroke-width="3"/>
            </g>
            <g id="Group_29373" data-name="Group 29373" transform="translate(109.006)">
              <g id="Rectangle_10772" data-name="Rectangle 10772" transform="translate(36.336 36.335) rotate(180)" fill="none" stroke="#383838" stroke-miterlimit="10" stroke-width="3">
                <rect width="36.336" height="36.335" stroke="none"/>
                <rect x="-1.5" y="-1.5" width="39.336" height="39.335" fill="none"/>
              </g>
              <line id="Line_919" data-name="Line 919" x1="36.336" y2="36.335" transform="translate(0)" fill="none" stroke="#383838" stroke-miterlimit="10" stroke-width="3"/>
              <line id="Line_920" data-name="Line 920" x2="36.336" y2="36.335" transform="translate(0)" fill="none" stroke="#383838" stroke-miterlimit="10" stroke-width="3"/>
            </g>
          </g>
        </g>
        <g id="Group_29385" data-name="Group 29385" transform="translate(181.676 72.111)">
          <g id="Group_29376" data-name="Group 29376" transform="translate(0 290.679)">
            <g id="Rectangle_10773" data-name="Rectangle 10773" transform="translate(36.333 36.337) rotate(180)" fill="none" stroke="#383838" stroke-miterlimit="10" stroke-width="3">
              <rect width="36.333" height="36.337" stroke="none"/>
              <rect x="-1.5" y="-1.5" width="39.333" height="39.337" fill="none"/>
            </g>
            <line id="Line_921" data-name="Line 921" x1="36.333" y2="36.337" transform="translate(0)" fill="none" stroke="#383838" stroke-miterlimit="10" stroke-width="3"/>
            <line id="Line_922" data-name="Line 922" x2="36.333" y2="36.337" transform="translate(0)" fill="none" stroke="#383838" stroke-miterlimit="10" stroke-width="3"/>
          </g>
          <g id="Group_29377" data-name="Group 29377" transform="translate(0 254.345)">
            <g id="Rectangle_10774" data-name="Rectangle 10774" transform="translate(36.333 36.335) rotate(180)" fill="none" stroke="#383838" stroke-miterlimit="10" stroke-width="3">
              <rect width="36.333" height="36.335" stroke="none"/>
              <rect x="-1.5" y="-1.5" width="39.333" height="39.335" fill="none"/>
            </g>
            <line id="Line_923" data-name="Line 923" x1="36.333" y2="36.335" transform="translate(0 0)" fill="none" stroke="#383838" stroke-miterlimit="10" stroke-width="3"/>
            <line id="Line_924" data-name="Line 924" x2="36.333" y2="36.335" transform="translate(0 0)" fill="none" stroke="#383838" stroke-miterlimit="10" stroke-width="3"/>
          </g>
          <g id="Group_29378" data-name="Group 29378" transform="translate(0 218.01)">
            <g id="Rectangle_10775" data-name="Rectangle 10775" transform="translate(36.333 36.335) rotate(180)" fill="none" stroke="#383838" stroke-miterlimit="10" stroke-width="3">
              <rect width="36.333" height="36.335" stroke="none"/>
              <rect x="-1.5" y="-1.5" width="39.333" height="39.335" fill="none"/>
            </g>
            <line id="Line_925" data-name="Line 925" x1="36.333" y2="36.335" transform="translate(0 0)" fill="none" stroke="#383838" stroke-miterlimit="10" stroke-width="3"/>
            <line id="Line_926" data-name="Line 926" x2="36.333" y2="36.335" transform="translate(0 0)" fill="none" stroke="#383838" stroke-miterlimit="10" stroke-width="3"/>
          </g>
          <g id="Group_29379" data-name="Group 29379" transform="translate(0 181.676)">
            <g id="Rectangle_10776" data-name="Rectangle 10776" transform="translate(36.333 36.334) rotate(180)" fill="none" stroke="#383838" stroke-miterlimit="10" stroke-width="3">
              <rect width="36.333" height="36.334" stroke="none"/>
              <rect x="-1.5" y="-1.5" width="39.333" height="39.334" fill="none"/>
            </g>
            <line id="Line_927" data-name="Line 927" x1="36.333" y2="36.334" transform="translate(0)" fill="none" stroke="#383838" stroke-miterlimit="10" stroke-width="3"/>
            <line id="Line_928" data-name="Line 928" x2="36.333" y2="36.334" transform="translate(0)" fill="none" stroke="#383838" stroke-miterlimit="10" stroke-width="3"/>
          </g>
          <g id="Group_29380" data-name="Group 29380" transform="translate(0 145.34)">
            <g id="Rectangle_10777" data-name="Rectangle 10777" transform="translate(36.333 36.336) rotate(180)" fill="none" stroke="#383838" stroke-miterlimit="10" stroke-width="3">
              <rect width="36.333" height="36.336" stroke="none"/>
              <rect x="-1.5" y="-1.5" width="39.333" height="39.336" fill="none"/>
            </g>
            <line id="Line_929" data-name="Line 929" x1="36.333" y2="36.336" transform="translate(0)" fill="none" stroke="#383838" stroke-miterlimit="10" stroke-width="3"/>
            <line id="Line_930" data-name="Line 930" x2="36.333" y2="36.336" transform="translate(0)" fill="none" stroke="#383838" stroke-miterlimit="10" stroke-width="3"/>
          </g>
          <g id="Group_29381" data-name="Group 29381" transform="translate(0 109.004)">
            <g id="Rectangle_10778" data-name="Rectangle 10778" transform="translate(36.333 36.336) rotate(180)" fill="none" stroke="#383838" stroke-miterlimit="10" stroke-width="3">
              <rect width="36.333" height="36.336" stroke="none"/>
              <rect x="-1.5" y="-1.5" width="39.333" height="39.336" fill="none"/>
            </g>
            <line id="Line_931" data-name="Line 931" x1="36.333" y2="36.336" transform="translate(0)" fill="none" stroke="#383838" stroke-miterlimit="10" stroke-width="3"/>
            <line id="Line_932" data-name="Line 932" x2="36.333" y2="36.336" transform="translate(0)" fill="none" stroke="#383838" stroke-miterlimit="10" stroke-width="3"/>
          </g>
          <g id="Group_29382" data-name="Group 29382" transform="translate(0 72.67)">
            <g id="Rectangle_10779" data-name="Rectangle 10779" transform="translate(36.333 36.334) rotate(180)" fill="none" stroke="#383838" stroke-miterlimit="10" stroke-width="3">
              <rect width="36.333" height="36.334" stroke="none"/>
              <rect x="-1.5" y="-1.5" width="39.333" height="39.334" fill="none"/>
            </g>
            <line id="Line_933" data-name="Line 933" x1="36.333" y2="36.334" transform="translate(0 0)" fill="none" stroke="#383838" stroke-miterlimit="10" stroke-width="3"/>
            <line id="Line_934" data-name="Line 934" x2="36.333" y2="36.334" transform="translate(0 0)" fill="none" stroke="#383838" stroke-miterlimit="10" stroke-width="3"/>
          </g>
          <g id="Group_29383" data-name="Group 29383" transform="translate(0 36.335)">
            <g id="Rectangle_10780" data-name="Rectangle 10780" transform="translate(36.333 36.336) rotate(180)" fill="none" stroke="#383838" stroke-miterlimit="10" stroke-width="3">
              <rect width="36.333" height="36.336" stroke="none"/>
              <rect x="-1.5" y="-1.5" width="39.333" height="39.336" fill="none"/>
            </g>
            <line id="Line_935" data-name="Line 935" x1="36.333" y2="36.336" transform="translate(0)" fill="none" stroke="#383838" stroke-miterlimit="10" stroke-width="3"/>
            <line id="Line_936" data-name="Line 936" x2="36.333" y2="36.336" transform="translate(0)" fill="none" stroke="#383838" stroke-miterlimit="10" stroke-width="3"/>
          </g>
          <g id="Group_29384" data-name="Group 29384">
            <g id="Rectangle_10781" data-name="Rectangle 10781" transform="translate(36.333 36.335) rotate(180)" fill="none" stroke="#383838" stroke-miterlimit="10" stroke-width="3">
              <rect width="36.333" height="36.335" stroke="none"/>
              <rect x="-1.5" y="-1.5" width="39.333" height="39.335" fill="none"/>
            </g>
            <line id="Line_937" data-name="Line 937" x1="36.333" y2="36.335" transform="translate(0 0)" fill="none" stroke="#383838" stroke-miterlimit="10" stroke-width="3"/>
            <line id="Line_938" data-name="Line 938" x2="36.333" y2="36.335" transform="translate(0 0)" fill="none" stroke="#383838" stroke-miterlimit="10" stroke-width="3"/>
          </g>
        </g>
        <g id="Group_29388" data-name="Group 29388" transform="translate(181.676)">
          <g id="Group_29386" data-name="Group 29386" transform="translate(0 36.335)">
            <g id="Rectangle_10782" data-name="Rectangle 10782" transform="translate(36.333 36.335) rotate(180)" fill="none" stroke="#383838" stroke-miterlimit="10" stroke-width="3">
              <rect width="36.333" height="36.335" stroke="none"/>
              <rect x="-1.5" y="-1.5" width="39.333" height="39.335" fill="none"/>
            </g>
            <line id="Line_939" data-name="Line 939" x1="36.333" y2="36.335" transform="translate(0)" fill="none" stroke="#383838" stroke-miterlimit="10" stroke-width="3"/>
            <line id="Line_940" data-name="Line 940" x2="36.333" y2="36.335" transform="translate(0)" fill="none" stroke="#383838" stroke-miterlimit="10" stroke-width="3"/>
          </g>
          <g id="Group_29387" data-name="Group 29387">
            <g id="Rectangle_10783" data-name="Rectangle 10783" transform="translate(36.333 36.335) rotate(180)" fill="none" stroke="#383838" stroke-miterlimit="10" stroke-width="3">
              <rect width="36.333" height="36.335" stroke="none"/>
              <rect x="-1.5" y="-1.5" width="39.333" height="39.335" fill="none"/>
            </g>
            <line id="Line_941" data-name="Line 941" x1="36.333" y2="36.335" transform="translate(0 0)" fill="none" stroke="#383838" stroke-miterlimit="10" stroke-width="3"/>
            <line id="Line_942" data-name="Line 942" x2="36.333" y2="36.335" transform="translate(0 0)" fill="none" stroke="#383838" stroke-miterlimit="10" stroke-width="3"/>
          </g>
        </g>
      </g>
      <rect id="Rectangle_10786" data-name="Rectangle 10786" width="53.662" height="11.338" transform="translate(1232.894 1607.674) rotate(180)" fill="#91ba83"/>
      <rect id="Rectangle_10787" data-name="Rectangle 10787" width="53.662" height="4.587" transform="translate(1232.894 1607.674) rotate(180)" fill="#383838"/>
      <path id="Path_33777" data-name="Path 33777" d="M376.459,409.744h54.617c6.4,0,11.595,5.565,11.595,12.426H364.862C364.862,415.309,370.053,409.744,376.459,409.744Z" transform="translate(802.295 1197.93)" fill="#91ba83"/>
    </g>
    <line id="Line_943" data-name="Line 943" y2="66.99" transform="translate(1097.363 1267.332)" fill="none" stroke="#2c2e33" stroke-miterlimit="10" stroke-width="2.493"/>
    <rect id="Rectangle_10788" data-name="Rectangle 10788" width="16.516" height="9.053" transform="translate(1105.621 1271.858) rotate(180)" fill="#f9865f"/>
    <rect id="Rectangle_10789" data-name="Rectangle 10789" width="16.515" height="9.054" transform="translate(1092.836 1330.519) rotate(-90)" fill="#f9865f"/>
    <path id="Path_33778" data-name="Path 33778" d="M310.88,177.768a9.055,9.055,0,1,0,1.5,15.422" transform="translate(790.397 1156.97)" fill="none" stroke="#2c2e33" stroke-miterlimit="10" stroke-width="2.493"/>
    <rect id="Rectangle_10790" data-name="Rectangle 10790" width="69.382" height="69.382" rx="1" transform="translate(1060.799 1385.642)" fill="#ff6d66"/>
    <path id="Rectangle_10791" data-name="Rectangle 10791" d="M1.117,0H60.088A1.115,1.115,0,0,1,61.2,1.115V60.089A1.115,1.115,0,0,1,60.088,61.2H1.115A1.115,1.115,0,0,1,0,60.089V1.117A1.117,1.117,0,0,1,1.117,0Z" transform="translate(1064.888 1389.732)" fill="#fad8b0"/>
    <path id="Path_33780" data-name="Path 33780" d="M318.555,243.137A10.459,10.459,0,1,1,308.1,232.678,10.46,10.46,0,0,1,318.555,243.137Z" transform="translate(790.349 1166.738)" fill="#f9865f"/>
    <path id="Path_33781" data-name="Path 33781" d="M335.552,279.083V265.655l-10.285-13.592a2.941,2.941,0,0,0-4.691,0l-21.868,28.9h34.969A1.874,1.874,0,0,0,335.552,279.083Z" transform="translate(790.539 1169.976)" fill="#0fd7ad"/>
    <path id="Path_33783" data-name="Path 33783" d="M288.123,244.257l-10.1,13.344v22.936a1.876,1.876,0,0,0,1.875,1.877h43.288l-28.873-38.157A3.883,3.883,0,0,0,288.123,244.257Z" transform="translate(786.862 1168.522)" fill="#073570"/>
    <path id="Path_33784" data-name="Path 33784" d="M340.3,228.49l-30.171-40.639L277.235,228.49" transform="translate(786.723 1158.771)" fill="none" stroke="#2c2e33" stroke-miterlimit="10" stroke-width="2.493"/>
    <g id="Group_29422" data-name="Group 29422" transform="translate(36.885 -12.977)">
      <path id="Rectangle_10792" data-name="Rectangle 10792" d="M1.29,0H136.373a1.293,1.293,0,0,1,1.293,1.293V50.684a1.292,1.292,0,0,1-1.292,1.292H1.293A1.293,1.293,0,0,1,0,50.684V1.29A1.29,1.29,0,0,1,1.29,0Z" transform="translate(795.476 1582.209) rotate(180)" fill="#7595ec"/>
      <path id="Path_33785" data-name="Path 33785" d="M150.851,252.4a1.523,1.523,0,0,0-1.522,1.522v48.934a1.52,1.52,0,0,0,1.522,1.519H201.3V252.4Z" transform="translate(508.481 1277.837)" fill="#0fd7ad"/>
      <g id="Group_29399" data-name="Group 29399" transform="translate(714.652 1553.24)">
        <g id="Group_29398" data-name="Group 29398">
          <rect id="Rectangle_10793" data-name="Rectangle 10793" width="76.141" height="1.76" fill="#073570"/>
          <rect id="Rectangle_10794" data-name="Rectangle 10794" width="38.881" height="1.762" transform="translate(0 4.498)" fill="#073570"/>
          <rect id="Rectangle_10795" data-name="Rectangle 10795" width="34.538" height="1.762" transform="translate(41.603 4.498)" fill="#073570"/>
          <rect id="Rectangle_10796" data-name="Rectangle 10796" width="16.372" height="1.763" transform="translate(0 8.996)" fill="#073570"/>
          <rect id="Rectangle_10797" data-name="Rectangle 10797" width="30.018" height="1.763" transform="translate(18.934 8.996)" fill="#073570"/>
        </g>
      </g>
      <g id="Group_29400" data-name="Group 29400" transform="translate(714.652 1536.354)">
        <rect id="Rectangle_10798" data-name="Rectangle 10798" width="62.991" height="4.296" fill="#ff6d66"/>
        <rect id="Rectangle_10799" data-name="Rectangle 10799" width="30.077" height="4.292" transform="translate(0 6.902)" fill="#ff6d66"/>
        <rect id="Rectangle_10800" data-name="Rectangle 10800" width="42.356" height="4.292" transform="translate(33.785 6.902)" fill="#ff6d66"/>
      </g>
      <path id="Path_33786" data-name="Path 33786" d="M266.172,289.513a3.436,3.436,0,0,1-3.433,3.435H243.584a3.437,3.437,0,0,1-3.435-3.435h0a3.436,3.436,0,0,1,3.435-3.433h19.154a3.436,3.436,0,0,1,3.433,3.433Z" transform="translate(524.621 1283.823)" fill="#fdfcff"/>
      <rect id="Rectangle_10801" data-name="Rectangle 10801" width="45.042" height="1.761" transform="translate(714.652 1572.458)" fill="#073570"/>
      <g id="Group_29401" data-name="Group 29401" transform="translate(662.558 1535.4)">
        <rect id="Rectangle_10802" data-name="Rectangle 10802" width="42.333" height="42.33" transform="translate(42.333 42.33) rotate(180)" fill="none" stroke="#073570" stroke-miterlimit="10" stroke-width="1.622"/>
        <line id="Line_944" data-name="Line 944" x1="42.333" y2="42.33" transform="translate(0 0)" fill="none" stroke="#073570" stroke-miterlimit="10" stroke-width="1.622"/>
        <line id="Line_945" data-name="Line 945" x2="42.333" y2="42.33" transform="translate(0 0)" fill="none" stroke="#073570" stroke-miterlimit="10" stroke-width="1.622"/>
      </g>
    </g>
    <path id="Rectangle_10803" data-name="Rectangle 10803" d="M.76,0H55.67a.758.758,0,0,1,.758.758v29.03a.76.76,0,0,1-.76.76H.76a.76.76,0,0,1-.76-.76V.76A.76.76,0,0,1,.76,0Z" transform="translate(1024.387 1349.596) rotate(180)" fill="#073570"/>
    <g id="Group_29403" data-name="Group 29403" transform="translate(972.846 1329.258)">
      <rect id="Rectangle_10804" data-name="Rectangle 10804" width="38.694" height="3.885" fill="#fdfcff"/>
      <rect id="Rectangle_10805" data-name="Rectangle 10805" width="18.478" height="3.883" transform="translate(0 6.245)" fill="#fdfcff"/>
      <rect id="Rectangle_10806" data-name="Rectangle 10806" width="26.019" height="3.883" transform="translate(20.756 6.245)" fill="#fdfcff"/>
    </g>
    <g id="Group_29405" data-name="Group 29405" transform="translate(1018.617 1499.534)">
      <path id="Path_33787" data-name="Path 33787" d="M242.143,335.82a23.937,23.937,0,1,0,23.936-23.938A23.935,23.935,0,0,0,242.143,335.82Z" transform="translate(-242.143 -311.882)" fill="#e8bb42"/>
      <path id="Path_33788" data-name="Path 33788" d="M253.722,328.873a10.3,10.3,0,1,0,10.3-10.3A10.3,10.3,0,0,0,253.722,328.873Z" transform="translate(-240.085 -310.693)" fill="#fdfbff"/>
      <path id="Path_33789" data-name="Path 33789" d="M264.855,355.6a23.846,23.846,0,0,1-15.824-5.98,15.9,15.9,0,0,1,31.646,0A23.845,23.845,0,0,1,264.855,355.6Z" transform="translate(-240.919 -307.728)" fill="#fdfbff"/>
    </g>
    <path id="Rectangle_10807" data-name="Rectangle 10807" d="M.8,0H49.109a.8.8,0,0,1,.8.8v37.13a.8.8,0,0,1-.8.8H.8a.8.8,0,0,1-.8-.8V.8A.8.8,0,0,1,.8,0Z" transform="translate(877.458 1367.433)" fill="#073570"/>
    <path id="Rectangle_10808" data-name="Rectangle 10808" d="M.8,0H43.226a.8.8,0,0,1,.8.8V31.957a.8.8,0,0,1-.8.8H.8a.8.8,0,0,1-.8-.8V.8A.8.8,0,0,1,.8,0Z" transform="translate(880.399 1370.375)" fill="#91ba83"/>
    <path id="Path_33790" data-name="Path 33790" d="M199.878,206.754v14.308a1.74,1.74,0,0,0,2.778,1.4l9.622-7.153a1.739,1.739,0,0,0,0-2.792l-9.622-7.153A1.74,1.74,0,0,0,199.878,206.754Z" transform="translate(697.497 1172.847)" fill="#fdfbff"/>
    <g id="Group_29427" data-name="Group 29427">
      <path id="Path_33791" data-name="Path 33791" d="M162.139,324.927A30.63,30.63,0,1,1,131.51,294.3,30.629,30.629,0,0,1,162.139,324.927Z" transform="translate(527.015 888.614)" fill="#073570"/>
      <text id="_" data-name="&lt;\&gt;" transform="translate(656.961 1218.943)" fill="#fff" font-size="22" font-family="Quicksand-Bold, Quicksand" font-weight="700"><tspan x="-17.798" y="0">&lt;\&gt;</tspan></text>
    </g>
    <g id="Group_29417" data-name="Group 29417">
      <circle id="Ellipse_1362" data-name="Ellipse 1362" cx="30.63" cy="30.63" r="30.63" transform="translate(1241 1307)" fill="#0fd7ad"/>
      <g id="Group_29416" data-name="Group 29416" transform="translate(0.23 3.988)">
        <text id="_2" data-name="{   }" transform="translate(1251.769 1342.012)" fill="#fff" stroke="#fff" stroke-miterlimit="10" stroke-width="1" font-size="23" font-family="Quicksand-Bold, Quicksand" font-weight="700"><tspan x="0" y="0" xml:space="preserve">{   }</tspan></text>
        <line id="Line_946" data-name="Line 946" x2="7.671" transform="translate(1269.776 1331.091)" fill="#2e2e2e" stroke="#fff" stroke-linecap="round" stroke-linejoin="round" stroke-width="2.542"/>
        <line id="Line_947" data-name="Line 947" x2="11.975" transform="translate(1265.473 1336.766)" fill="#2e2e2e" stroke="#fff" stroke-linecap="round" stroke-linejoin="round" stroke-width="2.542"/>
        <line id="Line_948" data-name="Line 948" x2="11.975" transform="translate(1265.473 1342.44)" fill="#2e2e2e" stroke="#fff" stroke-linecap="round" stroke-linejoin="round" stroke-width="2.542"/>
      </g>
    </g>
    <g id="Group_29426" data-name="Group 29426">
      <path id="Path_33792" data-name="Path 33792" d="M94.049,263.188a30.63,30.63,0,1,1-30.63-30.63A30.629,30.629,0,0,1,94.049,263.188Z" transform="translate(572.973 1170.577)" fill="#91ba83"/>
      <text id="C_" data-name="C++" transform="translate(635.172 1440.281)" fill="#f9f9f9" font-size="18" font-family="Quicksand-Bold, Quicksand" font-weight="700"><tspan x="-16.047" y="0">C++</tspan></text>
    </g>
    <circle id="Ellipse_1363" data-name="Ellipse 1363" cx="30.63" cy="30.63" r="30.63" transform="translate(835 1257)" fill="#ff6d66"/>
    <text id="HTML" transform="translate(866 1294)" fill="#f9f9f9" font-size="18" font-family="Quicksand-Bold, Quicksand" font-weight="700"><tspan x="-24.534" y="0">HTML</tspan></text>
    <g id="Group_29415" data-name="Group 29415">
      <path id="Path_33793" data-name="Path 33793" d="M464,248.691a30.63,30.63,0,1,1-30.63-30.63A30.629,30.629,0,0,1,464,248.691Z" transform="translate(704.929 1253.946)" fill="#17a9fe"/>
      <text id="PHP" transform="translate(1138.045 1509.453)" fill="#f9f9f9" font-size="18" font-family="Quicksand-Bold, Quicksand" font-weight="700"><tspan x="-17.325" y="0">PHP</tspan></text>
    </g>
    <g id="Rectangle_10656" data-name="Rectangle 10656" transform="translate(535 1621)" fill="#fff" stroke="#707070" stroke-width="1">
      <rect width="850" height="2" stroke="none"/>
      <rect x="0.5" y="0.5" width="849" height="1" fill="none"/>
    </g>
  </g>
</svg>
